<?xml version="1.0" encoding="utf-8"?>
<!-- Generator: Adobe Illustrator 25.0.1, SVG Export Plug-In . SVG Version: 6.00 Build 0)  -->
<svg version="1.1" id="Layer_1" xmlns="http://www.w3.org/2000/svg" xmlns:xlink="http://www.w3.org/1999/xlink" x="0px" y="0px"
	 viewBox="0 0 1810 512" style="enable-background:new 0 0 1810 512;" xml:space="preserve">
<style type="text/css">
	.st0{display:none;fill:#0055AB;}
	.st1{fill:#E8EDFC;}
	.st2{fill:#CAD9FC;}
	.st3{fill:#FFFFFF;}
	.st4{fill:#428DFF;}
	.st5{enable-background:new    ;}
</style>
<rect x="-59" y="-162.8" class="st0" width="1459.7" height="879.2"/>
<g id="Page-1">
	<g id="_x30_10---Candy-Corn" transform="translate(-1)">
		<g id="Icons" transform="translate(2 1)">
			<path id="Shape" class="st1" d="M485.4,408.6c0,93.9-119.5,93.9-230.4,93.9s-230.4,0-230.4-93.9c1.4-37.3,7.6-74.3,18.3-110.1
				c37.6,41.8,127.3,41.8,212.1,41.8s174.4,0,212.1-41.8C477.8,334.3,484,371.3,485.4,408.6z"/>
			<path id="Shape_1_" class="st2" d="M467.1,298.5c-6.1,6.6-13.3,12.2-21.2,16.5c8.3,30.5,13,61.9,14,93.6
				c0,90.3-110.5,93.7-217.6,93.9H255c110.9,0,230.4,0,230.4-93.9C484,371.3,477.8,334.3,467.1,298.5z"/>
			<path id="Shape_2_" class="st1" d="M467.1,298.5c-37.6,41.8-127.3,41.8-212.1,41.8s-174.4,0-212.1-41.8
				c13.5-47.9,31.5-94.5,53.9-138.9c35.8,27.1,98.5,27.1,158.1,27.1s122.4,0,158.1-27.1C435.5,204.1,453.6,250.6,467.1,298.5z"/>
			<path id="Shape_3_" class="st2" d="M413.1,159.6c-6.2,4.6-12.9,8.4-20,11.4c19.8,41,36,83.7,48.3,127.6
				c-35.7,39.7-118.4,41.7-199.3,41.8H255c84.7,0,174.4,0,212.1-41.8C453.6,250.6,435.5,204.1,413.1,159.6L413.1,159.6z"/>
			<path id="Shape_4_" class="st3" d="M413.1,159.6c-35.8,27.1-98.5,27.1-158.1,27.1s-122.4,0-158.1-27.1
				C139.4,75.9,196.1,7.5,255,7.5S370.6,75.9,413.1,159.6z"/>
			<path id="Shape_5_" class="st1" d="M255,7.5c-4.3,0-8.6,0.4-12.8,1.2c54.3,9,105.9,73.3,145.3,150.9
				c-33.2,25.2-89.7,27-145.3,27.1H255c59.6,0,122.4,0,158.1-27.1C370.6,75.9,313.9,7.5,255,7.5L255,7.5z"/>
			<g>
				<path id="Shape_6_" class="st3" d="M255,41.7c-36,0-76.1,43.3-110.7,102.4"/>
				<ellipse id="Oval" class="st3" cx="169.7" cy="408.6" rx="25.6" ry="34.1"/>
				<ellipse id="Oval_1_" class="st3" cx="340.3" cy="408.6" rx="25.6" ry="34.1"/>
			</g>
			<path id="Shape_7_" class="st2" d="M229.4,434.2h51.2v8.5c0,14.1-11.5,25.6-25.6,25.6s-25.6-11.5-25.6-25.6V434.2z"/>
		</g>
		<g id="Icons_copy_2" transform="translate(2 1)">
			<path id="Shape_8_" class="st3" d="M255,502.5h12.8c-107.1-0.1-217.6-3.6-217.6-93.9c1.4-37.3,7.6-74.3,18.3-110.1
				C82,250.6,100,204,122.4,159.6C161.9,82,213.5,17.7,267.8,8.7c-4.2-0.7-8.5-1.1-12.8-1.2c-2.9,0-5.8,0.2-8.7,0.6
				c-1.4,0.2-2.7,0.3-4.1,0.5c-54.3,9-105.9,73.3-145.3,150.9C74.5,204,56.4,250.5,43,298.4c-10.8,35.9-17,72.9-18.4,110.2
				C24.6,502.5,144.1,502.5,255,502.5z"/>
		</g>
		<g id="Icons_copy">
			<path id="Shape_9_" class="st3" d="M58.9,463.1l-10.8,13.2c-10-8-17.9-18.3-23-30c-4.9-11.6-7.3-24.1-7.1-36.7h17.1
				C34.2,430.2,43,450,58.9,463.1z"/>
			<g>
				<path id="Shape_10_" class="st4" d="M33,451.6c-4.7,0-8.6-3.8-8.6-8.5s3.8-8.6,8.5-8.6H33c4.7,0,8.5,3.8,8.5,8.5
					S37.8,451.6,33,451.6z"/>
				<path id="Shape_11_" class="st4" d="M26.6,418.1c4.7,0,8.5-3.8,8.5-8.5c0.9-32,5.7-63.8,14.1-94.6
					c44,34.8,127.1,34.9,207.8,34.9s163.7-0.1,207.8-34.9c8.4,30.9,13.2,62.6,14.1,94.6c0,85.3-112.8,85.3-221.9,85.3
					c-34.9,0-69.7,0.1-104-3c-16.9-1.4-33.8-4.2-50.2-8.3c-15.9-3.7-30.8-10.7-43.9-20.5c-3.6-2.7-8.6-2.3-11.7,0.9
					c-1.6,1.7-2.5,4-2.3,6.4s1.4,4.5,3.3,5.9c14.9,11.3,32,19.4,50.3,23.7c17.4,4.4,35.2,7.3,53.1,8.8c35.4,3.2,70.6,3.1,105.5,3.1
					c112,0,238.9,0,238.9-102.4C495.9,297.4,387.4,0,257,0S18.1,297.4,18.1,409.6C18.1,414.3,21.9,418.1,26.6,418.1L26.6,418.1z
					 M257,332.8c-81.8,0-166.1-0.1-202.8-36.2c12.2-42.6,28.2-84,47.7-123.7c38.6,23.4,97.8,23.4,155.2,23.4s116.6,0,155.2-23.4
					c19.5,39.8,35.4,81.2,47.7,123.7C423.1,332.7,338.8,332.8,257,332.8z M257,17.1c53.1,0,106.4,62.2,147.4,140.5
					c-34.4,21.6-91.8,21.6-147.4,21.6s-113.1,0-147.4-21.6C150.6,79.3,203.9,17.1,257,17.1L257,17.1z"/>
				<path id="Shape_12_" class="st4" d="M142,152.4c2,1.1,4.3,1.5,6.5,0.9s4.1-2,5.2-3.9C190.2,87,227.9,51.2,257,51.2
					c4.7,0,8.5-3.8,8.5-8.5s-3.8-8.5-8.5-8.5c-46,0-89.6,58-118,106.7C136.6,144.9,138,150.1,142,152.4z"/>
				<path id="Shape_13_" class="st4" d="M205.8,409.6c0-23.5-15.3-42.7-34.1-42.7s-34.1,19.1-34.1,42.7c0,23.5,15.3,42.7,34.1,42.7
					S205.8,433.1,205.8,409.6z M154.6,409.6c0-13.9,7.8-25.6,17.1-25.6s17.1,11.7,17.1,25.6s-7.8,25.6-17.1,25.6
					C162.4,435.2,154.6,423.5,154.6,409.6z"/>
				<path id="Shape_14_" class="st4" d="M376.5,409.6c0-23.5-15.3-42.7-34.1-42.7c-18.8,0-34.1,19.1-34.1,42.7
					c0,23.5,15.3,42.7,34.1,42.7C361.2,452.3,376.5,433.1,376.5,409.6z M325.3,409.6c0-13.9,7.8-25.6,17.1-25.6
					c9.3,0,17.1,11.7,17.1,25.6s-7.8,25.6-17.1,25.6C333.1,435.2,325.3,423.5,325.3,409.6z"/>
				<path id="Shape_15_" class="st4" d="M291.1,443.7v-8.5c0-4.7-3.8-8.5-8.5-8.5h-51.2c-4.7,0-8.5,3.8-8.5,8.5v8.5
					c0,18.9,15.3,34.1,34.1,34.1S291.1,462.6,291.1,443.7z M239.9,443.7H274c0,9.4-7.6,17.1-17.1,17.1
					C247.6,460.8,239.9,453.2,239.9,443.7z"/>
			</g>
		</g>
	</g>
</g>
<g class="st5">
	<path class="st1" d="M600,366.9V148h76.2v68c0,9.8-0.3,17.7-1.6,27.6h1.6c4.6-12.5,7.6-17.4,11.5-24.6l37.8-70.9h86l-68.3,107.4
		l75.5,111.6h-91.9l-40.1-70.3c-3.9-6.6-7.6-14.4-10.5-21h-1.6c1.3,7.6,1.6,13.5,1.6,20.7v70.6H600z"/>
	<path class="st1" d="M927.3,231c-2.3-5.9-2.6-10.5-2.6-13.1v-4.3h73.9v153.3H925l0.3-5.3c0.3-4.3,1.6-10.2,3-14.1H926
		c-17.4,21.7-36.4,23.6-46,23.6c-15.4,0-30.2-4.6-43.3-18.1s-23-34.1-23-62c0-27.2,9.5-48.9,24-63.4c11.5-11.5,25.9-18.4,45.3-18.4
		c9.5,0,27.2,2,42.7,22.7L927.3,231z M894.5,306.2c3.6,3.6,7.9,5.3,12.8,5.3c4.6,0,8.9-1.3,12.8-4.9c4.3-4.3,7.2-10.2,7.2-17.1
		c0-7.2-3-12.8-6.6-16.1c-3.3-3-7.6-4.9-12.8-4.9c-4.9,0-9.8,1.6-13.5,5.3s-6.6,9.2-6.6,16.4C887.9,297.7,890.9,302.6,894.5,306.2z"
		/>
	<path class="st1" d="M1030.1,366.9V213.6h75.2v9.5c0,3.6-0.7,6.9-2,10.2h1.3c4.9-8.9,12.1-15.1,18.7-18.7
		c14.4-7.9,33.2-6.9,34.1-6.9v77.8c-9.8-6.2-15.4-8.5-23.3-8.5c-8.5,0-15.4,3-20.4,7.2c-7.9,6.9-9.2,15.1-9.2,22.7v60.1H1030.1z"/>
	<path class="st1" d="M1285.8,231c-2.3-5.9-2.6-10.5-2.6-13.1v-4.3h73.9v153.3h-73.5l0.3-5.3c0.3-4.3,1.6-10.2,3-14.1h-2.3
		c-17.4,21.7-36.4,23.6-46,23.6c-15.4,0-30.2-4.6-43.3-18.1c-13.1-13.5-23-34.1-23-62c0-27.2,9.5-48.9,24-63.4
		c11.5-11.5,25.9-18.4,45.3-18.4c9.5,0,27.2,2,42.7,22.7L1285.8,231z M1253,306.2c3.6,3.6,7.9,5.3,12.8,5.3c4.6,0,8.9-1.3,12.8-4.9
		c4.3-4.3,7.2-10.2,7.2-17.1c0-7.2-3-12.8-6.6-16.1c-3.3-3-7.6-4.9-12.8-4.9c-4.9,0-9.8,1.6-13.5,5.3s-6.6,9.2-6.6,16.4
		C1246.4,297.7,1249.4,302.6,1253,306.2z"/>
	<path class="st1" d="M1464.1,358.7c-8.5,8.5-21.7,12.5-33.2,12.5c-11.2,0-24.3-3.9-32.8-12.5c-6.6-6.6-10.2-16.1-10.2-24.3
		c0-7.9,3.6-17.4,10.2-24c8.5-8.5,21.7-12.5,32.8-12.5c11.5,0,24.6,3.9,33.2,12.5c6.6,6.6,10.2,16.1,10.2,24
		C1474.3,342.6,1470.6,352.2,1464.1,358.7z"/>
	<path class="st1" d="M1574.1,190c-6.9,7.2-19,11.8-31.8,11.8c-12.8,0-25-4.6-31.8-11.8c-5.6-5.9-9.5-14.8-9.5-24.3
		s3.9-18.4,9.5-24.3c6.9-7.2,19-11.8,31.8-11.8c12.8,0,25,4.6,31.8,11.8c5.6,5.9,9.5,14.8,9.5,24.3S1579.6,184.1,1574.1,190z
		 M1505.1,366.9V213.6h74.5v153.3H1505.1z"/>
	<path class="st1" d="M1769.7,345.3c-12.5,12.8-34.8,25.9-71.6,25.9s-59.1-13.1-71.6-25.9c-12.8-13.1-22-33.2-22-55.2
		c0-18.7,7.2-39.7,22-54.8c12.5-12.8,34.8-25.9,71.6-25.9s59.1,13.1,71.6,25.9c14.8,15.1,22,36.1,22,54.8
		C1791.7,312.1,1782.5,332.1,1769.7,345.3z M1683.7,273.7c-3.6,3.3-6.6,8.5-6.6,16.4c0,8.2,3,13.5,6.6,16.7
		c2.3,2.3,6.9,5.3,14.4,5.3c7.6,0,12.1-3,14.4-5.3c3.6-3.3,6.6-8.5,6.6-16.7c0-7.9-3-13.1-6.6-16.4c-2.3-2.3-6.9-5.3-14.4-5.3
		C1690.6,268.4,1686,271.4,1683.7,273.7z"/>
</g>
</svg>
